<?xml version="1.0" standalone="no"?>
<!DOCTYPE svg PUBLIC "-//W3C//DTD SVG 20010904//EN"
 "http://www.w3.org/TR/2001/REC-SVG-20010904/DTD/svg10.dtd">
<svg version="1.0" xmlns="http://www.w3.org/2000/svg"
 width="3437.000000pt" height="3437.000000pt" viewBox="0 0 3437.000000 3437.000000"
 preserveAspectRatio="xMidYMid meet">
<metadata>
Created by potrace 1.11, written by Peter Selinger 2001-2013
</metadata>
<g transform="translate(0.000000,3437.000000) scale(0.100000,-0.100000)"
fill="#000000" stroke="none">
<path d="M17208 34202 c-1 -4 -32 -16 -68 -26 -145 -39 -280 -123 -447 -279
-49 -45 -212 -192 -363 -327 -499 -446 -694 -622 -755 -680 -139 -132 -495
-458 -556 -509 -94 -79 -268 -235 -508 -456 -114 -104 -234 -212 -266 -240
-33 -27 -204 -183 -380 -345 -347 -320 -368 -338 -500 -450 -49 -41 -181 -160
-295 -265 -113 -104 -233 -212 -265 -240 -33 -27 -204 -183 -380 -345 -347
-320 -368 -338 -500 -450 -49 -41 -181 -160 -295 -265 -113 -104 -233 -212
-265 -240 -33 -27 -210 -189 -394 -358 -183 -170 -358 -326 -388 -349 -30 -22
-204 -178 -387 -347 -182 -168 -358 -328 -390 -356 -33 -27 -183 -164 -334
-303 -151 -140 -299 -272 -329 -294 -30 -22 -206 -180 -392 -351 -185 -172
-364 -334 -396 -362 -33 -27 -148 -131 -255 -230 -236 -217 -263 -241 -370
-330 -46 -38 -237 -211 -424 -384 -188 -173 -367 -336 -399 -363 -33 -27 -161
-143 -285 -257 -125 -115 -250 -229 -279 -253 -96 -81 -265 -232 -537 -483
-150 -137 -299 -272 -331 -300 -33 -27 -118 -104 -190 -170 -71 -66 -159 -145
-194 -175 -35 -30 -128 -113 -205 -185 -78 -71 -169 -152 -201 -180 -33 -27
-177 -158 -320 -290 -143 -132 -287 -262 -319 -290 -33 -27 -127 -112 -210
-189 -83 -76 -176 -159 -206 -185 -30 -25 -116 -102 -190 -171 -75 -69 -162
-147 -195 -175 -33 -27 -210 -189 -395 -359 -184 -170 -365 -335 -401 -365
-85 -71 -262 -230 -443 -396 -78 -71 -169 -152 -201 -180 -33 -27 -204 -183
-380 -345 -347 -320 -368 -338 -500 -450 -49 -41 -182 -162 -297 -268 -115
-106 -247 -223 -292 -261 -45 -38 -101 -91 -123 -118 -224 -268 -274 -625
-134 -945 111 -253 281 -425 511 -517 157 -62 156 -62 1110 -61 476 1 1447 1
2158 1 l1292 -1 0 -6962 c0 -6746 1 -6966 19 -7053 71 -345 341 -615 686 -686
86 -18 176 -19 1919 -19 l1829 0 -29 -33 c-16 -17 -56 -61 -90 -97 -33 -36
-73 -83 -89 -105 -41 -55 -168 -208 -334 -400 -33 -38 -86 -103 -117 -143 -31
-41 -89 -108 -128 -150 -39 -43 -91 -102 -114 -132 -23 -30 -64 -84 -92 -120
-222 -287 -239 -693 -42 -1010 323 -520 1085 -548 1458 -54 31 42 89 110 128
152 39 43 85 95 101 117 42 57 171 211 334 400 33 39 86 103 117 143 31 41 89
108 128 150 39 43 85 95 101 117 42 57 171 211 334 400 33 39 86 103 117 143
31 41 89 108 128 150 39 43 85 95 101 117 38 51 185 228 325 390 75 87 135
162 230 285 103 134 166 303 177 478 4 68 9 92 19 92 33 0 -2 214 -54 338 -38
87 -102 189 -165 258 -26 29 -47 57 -47 64 0 6 -39 52 -88 103 -48 51 -113
126 -145 167 -32 41 -83 105 -115 141 -180 209 -289 340 -337 404 -16 22 -62
74 -101 117 -39 42 -97 109 -128 150 -31 40 -82 103 -114 139 -180 209 -289
340 -337 404 -16 22 -62 74 -101 117 -39 42 -97 109 -128 150 -31 40 -82 103
-114 139 -186 216 -284 334 -351 422 -120 158 -312 276 -516 318 -567 117
-1090 -329 -1062 -906 9 -187 69 -354 177 -495 95 -123 155 -198 230 -285 140
-162 287 -339 325 -390 16 -22 62 -75 102 -118 40 -43 91 -102 112 -131 22
-29 63 -80 91 -112 29 -32 61 -71 72 -86 l19 -28 -1335 0 -1336 0 0 6963 c0
6745 -1 6965 -19 7052 -68 331 -316 590 -653 682 -58 16 -185 18 -1579 23
l-1515 5 184 170 c211 196 286 262 402 360 46 39 206 183 355 320 149 138 298
273 330 300 33 28 177 158 320 289 309 285 327 301 435 391 46 39 235 210 420
380 185 171 363 333 395 360 33 28 177 158 320 289 309 285 327 301 435 391
46 39 237 211 424 384 188 173 367 336 399 363 33 27 161 143 285 257 125 115
250 229 279 253 101 85 271 238 607 547 187 173 367 336 399 363 33 27 161
143 285 257 125 115 250 229 279 253 101 85 270 237 602 543 185 171 364 332
396 360 33 27 148 131 255 230 236 217 263 241 370 330 46 39 237 211 424 384
188 173 367 336 399 363 33 27 161 143 285 257 125 115 250 229 279 253 101
85 271 238 607 547 187 173 367 336 399 363 33 27 161 143 285 257 125 115
250 229 279 253 101 85 270 237 602 543 185 171 364 332 396 360 33 27 119
104 190 170 72 66 159 145 194 175 35 30 129 114 208 187 78 73 180 163 225
202 46 38 153 135 238 214 l155 144 5 -1551 c5 -1427 7 -1556 23 -1614 109
-401 457 -672 862 -672 405 0 753 271 862 672 16 58 18 186 23 1595 l5 1531
515 -474 c283 -261 562 -521 620 -578 58 -57 488 -456 955 -887 468 -431 875
-809 905 -841 30 -31 438 -409 905 -840 468 -430 875 -808 905 -840 30 -31
408 -382 840 -780 432 -397 810 -748 840 -780 30 -31 438 -409 905 -840 468
-430 875 -808 905 -840 30 -31 438 -409 905 -839 468 -431 873 -807 900 -836
28 -28 437 -408 910 -844 473 -436 863 -797 867 -804 4 -6 248 -234 543 -506
l536 -494 -1773 -5 c-1638 -5 -1778 -7 -1836 -23 -217 -59 -412 -198 -524
-372 -64 -100 -155 -292 -181 -383 l-22 -77 -3 -6932 -2 -6933 -1835 0 -1835
0 0 6963 c0 6745 -1 6965 -19 7052 -72 350 -350 623 -701 689 -77 15 -580 16
-5551 16 -4956 0 -5473 -1 -5550 -16 -415 -78 -719 -445 -719 -869 0 -424 304
-791 719 -869 77 -15 440 -16 3775 -16 2030 0 4273 0 4984 0 l1292 0 0 -6922
c0 -6707 1 -6926 19 -7013 37 -181 121 -329 265 -469 164 -159 296 -241 463
-289 l78 -22 2765 -3 c3051 -3 2845 -7 3010 59 215 86 405 270 489 474 61 149
91 239 105 314 15 75 16 731 16 6977 l0 6894 2458 0 c2355 0 2461 1 2547 19
659 136 926 923 491 1445 -22 28 -275 266 -561 530 -286 265 -545 506 -575
538 -30 31 -408 382 -840 780 -432 397 -810 748 -840 780 -30 31 -437 409
-905 840 -467 430 -875 808 -905 840 -30 31 -437 409 -905 840 -467 430 -875
808 -905 840 -30 31 -437 409 -905 840 -467 430 -875 808 -905 840 -30 31
-408 382 -840 780 -432 397 -810 748 -840 780 -30 31 -437 409 -905 839 -467
431 -872 807 -900 836 -27 28 -437 408 -910 844 -473 436 -861 796 -863 800
-2 4 -229 216 -505 471 l-501 463 1414 5 c1298 5 1420 7 1478 23 337 92 585
351 653 682 99 479 -208 948 -686 1046 -86 18 -196 19 -2692 19 -1431 0 -2603
-4 -2605 -8z"/>
</g>
</svg>
